<svg width="74" height="75" viewBox="0 0 74 75" fill="none" xmlns="http://www.w3.org/2000/svg">
<rect x="5" y="5.5" width="64" height="64" rx="28" fill="#96E4A0"/>
<rect x="5" y="5.5" width="64" height="64" rx="28" stroke="#3DC369" stroke-width="10"/>
<path d="M23.1667 30.8333L34.0533 38.4539C34.9349 39.071 35.3757 39.3795 35.8551 39.4991C36.2786 39.6046 36.7216 39.6046 37.1451 39.4991C37.6245 39.3795 38.0653 39.071 38.9469 38.4539L49.8334 30.8333M29.5667 48.1666H43.4334C45.6736 48.1666 46.7937 48.1666 47.6494 47.7307C48.402 47.3472 49.0139 46.7353 49.3974 45.9826C49.8334 45.127 49.8334 44.0069 49.8334 41.7666V33.2333C49.8334 30.9931 49.8334 29.873 49.3974 29.0174C49.0139 28.2647 48.402 27.6528 47.6494 27.2693C46.7937 26.8333 45.6736 26.8333 43.4334 26.8333H29.5667C27.3265 26.8333 26.2064 26.8333 25.3508 27.2693C24.5981 27.6528 23.9862 28.2647 23.6027 29.0174C23.1667 29.873 23.1667 30.9931 23.1667 33.2333V41.7666C23.1667 44.0069 23.1667 45.127 23.6027 45.9826C23.9862 46.7353 24.5981 47.3472 25.3508 47.7307C26.2064 48.1666 27.3265 48.1666 29.5667 48.1666Z" stroke="white" stroke-width="2" stroke-linecap="round" stroke-linejoin="round"/>
</svg>
